# xmcd CD database file generated by Grip 2.95
# 
# Track frame offsets:
#       182
#       25055
#       44135
#       73037
#       95395
#       121197
#       148035
#       170897
#       199337
#       234570
#       261350
#       290952
#       305830
# 
# Disc length: 4482 seconds
# 
# Revision: 3
# Processed by: cddbd v1.4PL0 Copyright (c) Steve Scherf et al.
# Submitted via: Grip 2.95
# 
DISCID=d411800d
DTITLE=Magic Slim - Vol. 3 Zoo Bar Collection
DYEAR=1900
DGENRE=
TTITLE0=You Don't Have To Go
TTITLE1=See What You're Doin' To Me
TTITLE2=Who's Loving You Tonight
TTITLE3=Early In The Morning
TTITLE4=You Know What My Body Needs
TTITLE5=Talk To Your Daughter
TTITLE6=Drink Muddy Water
TTITLE7=Goin' To New York
TTITLE8=Last Night
TTITLE9=She Don't Love Poor Me
TTITLE10=Teardrop
TTITLE11=How Blue Can You Get
TTITLE12=Tin Pan Alley/The Blues Are All Right
EXTD=
EXTT0=
EXTT1=
EXTT2=
EXTT3=
EXTT4=
EXTT5=
EXTT6=
EXTT7=
EXTT8=
EXTT9=
EXTT10=
EXTT11=
EXTT12=
PLAYORDER=
